#!OML:ASF I:\Actors\actors\Patient Classification 1\Patient 1\Session 1\Subject1.ASF
:FULLY-SPECIFIED
:DEGREES
387
root 0.494286 17.4516 8.23217 43.5707 3.93518 -9.68731
lowerback 26.3287 -0.691724 8.70801
upperback 2.41014 1.82283 1.83306
thorax -11.7797 0.436444 -3.56253
lowerneck 2.85067 -3.38807 -1.24454
upperneck -14.0972 -3.52125 9.68661
head -4.46453 -2.27278 3.35985
rclavicle 3.97569e-015 -4.73108e-014
rhumerus -33.1825 -3.73727 -87.2301
rradius 48.3201
rwrist 9.76906
rhand 0.788515 -32.8541
rfingers 7.12502
rthumb 26.3454 -61.0442
lclavicle 3.97569e-015 -4.73108e-014
lhumerus -29.6224 -1.70262 90.3502
lradius 54.1992
lwrist 12.5461
lhand -21.9286 -11.7113
lfingers 7.12502
lthumb 4.47768 18.2213
rfemur -46.8888 31.0797 -3.65158
rtibia -0.62893
rfoot -23.6204 -40.192
rtoes 28.7535
lfemur -45.8532 -40.0398 32.744
ltibia -7.74257
lfoot -60.06 49.7594
ltoes 49.4281
388
root 0.459886 17.4472 8.22328 44.0037 3.22261 -10.2047
lowerback 26.1899 -0.443826 8.53897
upperback 2.42731 2.08258 1.91068
thorax -11.6632 0.569571 -3.46504
lowerneck 2.8675 -3.38121 -1.21972
upperneck -13.9774 -3.54403 9.48922
head -4.4348 -2.27143 3.29288
rclavicle -2.26615e-014 -4.17448e-015
rhumerus -33.0572 -3.63734 -87.2383
rradius 48.344
rwrist 9.68705
rhand 0.803635 -32.7284
rfingers 7.12502
rthumb 26.3599 -60.9162
lclavicle -2.26615e-014 -4.17448e-015
lhumerus -29.4984 -1.715 90.3264
lradius 54.2533
lwrist 12.5677
lhand -21.9674 -11.6063
lfingers 7.12502
lthumb 4.44024 18.3271
rfemur -48.0843 31.4829 -4.09815
rtibia -0.4127
rfoot -23.1859 -40.1107
rtoes 28.2676
lfemur -45.2647 -39.1142 32.5887
ltibia -7.88674
lfoot -60.4473 49.5246
ltoes 49.6873
389
root 0.427709 17.448 8.23044 43.9044 2.84204 -10.2919
lowerback 26.5398 -0.476924 8.46587
upperback 2.5791 2.05254 1.98562
thorax -11.6823 0.562762 -3.33398
lowerneck 2.8596 -3.34764 -1.31009
upperneck -13.7998 -3.53982 9.31232
head -4.38148 -2.24985 3.24831
rclavicle 4.77083e-015 3.51849e-014
rhumerus -32.9313 -3.55417 -87.2049
rradius 48.381
rwrist 9.62141
rhand 0.799816 -32.5944
rfingers 7.12502
rthumb 26.3562 -60.7828
lclavicle 4.77083e-015 3.51849e-014
lhumerus -29.4782 -1.60094 90.3122
lradius 54.4046
lwrist 12.5811
lhand -22.033 -11.5247
lfingers 7.12502
lthumb 4.37691 18.41
rfemur -48.0329 31.8129 -4.01065
rtibia -0.496073
rfoot -22.7549 -40.073
rtoes 27.682
lfemur -44.6442 -39.112 32.2771
ltibia -8.07897
lfoot -60.7394 49.4197
ltoes 49.746
390
root 0.397496 17.4562 8.25506 43.2915 2.70269 -9.93765
lowerback 27.37 -0.740148 8.44109
upperback 2.88115 1.77676 2.01214
thorax -11.8028 0.439442 -3.20584
lowerneck 2.77912 -3.3078 -1.44086
upperneck -13.6197 -3.52572 9.17349
head -4.31387 -2.2223 3.22023
rclavicle -1.27222e-014 -1.72943e-014
rhumerus -32.7784 -3.50987 -87.1588
rradius 48.4517
rwrist 9.42872
rhand 0.872349 -32.5042
rfingers 7.12502
rthumb 26.4257 -60.6822
lclavicle -1.27222e-014 -1.72943e-014
lhumerus -29.3644 -1.52185 90.2794
lradius 54.4647
lwrist 12.653
lhand -22.1543 -11.7256
lfingers 7.12502
lthumb 4.2598 18.2116
rfemur -46.7758 32.0855 -3.49463
rtibia -0.915384
rfoot -22.3577 -40.0837
rtoes 27.2077
lfemur -43.9072 -40.0286 31.6502
ltibia -8.31829
lfoot -61.1582 49.301
ltoes 49.8218
391
root 0.368857 17.4589 8.26425 43.6536 1.9541 -9.46524
lowerback 27.2409 -0.696826 7.74713
upperback 3.00294 1.59394 1.92194
thorax -11.6306 0.397547 -2.84537
lowerneck 2.71785 -3.22919 -1.49786
upperneck -13.5086 -3.46834 8.86574
head -4.27847 -2.16983 3.12844
rclavicle -6.36111e-015 2.98177e-014
rhumerus -32.5578 -3.26058 -87.1425
rradius 48.5043
rwrist 9.10337
rhand 0.94606 -32.4694
rfingers 7.12502
rthumb 26.4962 -60.6368
lclavicle -6.36111e-015 2.98177e-014
lhumerus -29.149 -1.29647 90.228
lradius 54.4282
lwrist 12.6671
lhand -22.1578 -12.0924
lfingers 7.12502
lthumb 4.25643 17.8448
rfemur -47.2371 31.9298 -4.4602
rtibia -1.0049
rfoot -22.0207 -39.9781
rtoes 27.0054
lfemur -43.9446 -39.8557 30.8952
ltibia -8.26773
lfoot -61.671 49.0514
ltoes 49.9877
392
root 0.34077 17.4601 8.27175 44.0772 1.21485 -9.00764
lowerback 27.0953 -0.639294 7.06562
upperback 3.07627 1.43842 1.83224
thorax -11.5001 0.363181 -2.5008
lowerneck 2.93165 -3.14097 -1.52022
upperneck -13.6572 -3.38465 8.49804
head -4.37195 -2.1141 3.02336
rclavicle 7.95139e-016 1.88845e-014
rhumerus -32.4465 -2.99771 -87.1203
rradius 48.6162
rwrist 8.85414
rhand 0.928459 -32.4924
rfingers 7.12502
rthumb 26.4794 -60.6624
lclavicle 7.95139e-016 1.88845e-014
lhumerus -28.9814 -1.00911 90.2181
lradius 54.4047
lwrist 12.5676
lhand -22.1563 -12.3249
lfingers 7.12502
lthumb 4.25784 17.6123
rfemur -47.8264 31.7186 -5.46106
rtibia -1.02383
rfoot -21.6265 -39.8739
rtoes 26.6544
lfemur -44.1002 -39.5961 30.2322
ltibia -8.17262
lfoot -62.1352 48.7588
ltoes 50.2087
393
root 0.320289 17.4531 8.26636 44.1891 1.28627 -9.45153
lowerback 27.3165 -0.937513 7.53013
upperback 3.1864 1.24412 2.14366
thorax -11.504 0.262694 -2.34386
lowerneck 3.06683 -2.89314 -2.09809
upperneck -13.7126 -3.10226 8.36908
head -4.41714 -1.94076 3.07149
rclavicle 2.50469e-014 1.5704e-014
rhumerus -32.3304 -2.10665 -87.0938
rradius 48.7149
rwrist 8.64006
rhand 0.88914 -32.4485
rfingers 7.12502
rthumb 26.4417 -60.6241
lclavicle 2.50469e-014 1.5704e-014
lhumerus -28.9556 -0.0876658 90.2348
lradius 54.4957
lwrist 12.4424
lhand -22.2438 -12.4464
lfingers 7.12502
lthumb 4.1733 17.4924
rfemur -48.0363 31.8715 -4.92028
rtibia -1.0483
rfoot -21.2392 -39.8391
rtoes 26.3064
lfemur -43.9533 -39.2457 30.8527
ltibia -8.26169
lfoot -62.4119 48.4911
ltoes 50.4057
394
root 0.298876 17.4457 8.25906 44.3583 1.34482 -10.0037
lowerback 27.5434 -1.53421 7.68533
upperback 3.25111 0.612457 2.65728
thorax -11.6122 -0.0194192 -1.6175
lowerneck 3.1009 -2.25163 -3.5533
upperneck -13.5479 -2.3244 8.51948
head -4.38956 -1.48595 3.32512
rclavicle -1.66979e-014 -5.40694e-014
rhumerus -32.1441 0.203075 -87.2551
rradius 48.6942
rwrist 8.34817
rhand 0.837494 -32.2493
rfingers 7.12502
rthumb 26.3923 -60.4323
lclavicle -1.66979e-014 -5.40694e-014
lhumerus -29.2075 2.23977 90.0312
lradius 54.7335
lwrist 12.2609
lhand -22.3239 -12.5536
lfingers 7.12502
lthumb 4.096 17.3867
rfemur -48.3927 32.0723 -4.37416
rtibia -1.0227
rfoot -20.8998 -39.8019
rtoes 25.9606
lfemur -43.7269 -38.7749 31.5314
ltibia -8.42097
lfoot -62.7277 48.2135
ltoes 50.6047
395
root 0.266888 17.4451 8.26451 44.9075 0.508159 -9.84319
lowerback 27.4234 -1.25076 7.0243
upperback 3.16051 0.733172 2.34635
thorax -11.6487 0.0545005 -1.63863
lowerneck 2.88844 -2.48657 -2.74204
upperneck -13.3785 -2.61785 8.32759
head -4.30122 -1.65584 3.13546
rclavicle 1.59028e-015 1.23246e-014
rhumerus -32.4198 -0.265364 -87.5032
rradius 48.8315
rwrist 8.37749
rhand 0.751468 -32.0343
rfingers 7.12502
rthumb 26.31 -60.2297
lclavicle 1.59028e-015 1.23246e-014
lhumerus -29.3889 1.89568 89.6382
lradius 54.8567
lwrist 12.3744
lhand -22.3695 -12.67
lfingers 7.12502
lthumb 4.05201 17.2712
rfemur -49.3645 32.0467 -5.38352
rtibia -0.922031
rfoot -20.4363 -39.7359
rtoes 25.3063
lfemur -43.6437 -38.199 30.9422
ltibia -8.44179
lfoot -63.2017 47.901
ltoes 50.8596
396
root 0.249845 17.4455 8.27573 45.2564 0.0470241 -9.21808
lowerback 27.4912 -1.28453 6.66015
upperback 3.12821 0.550196 2.01727
thorax -11.7356 -0.0227328 -1.73877
lowerneck 3.10971 -2.55261 -2.10184
upperneck -13.7267 -2.66693 8.13451
head -4.45681 -1.71323 2.98282
rclavicle -3.18055e-015 3.97569e-015
rhumerus -32.6283 -0.736531 -87.6568
rradius 48.9764
rwrist 8.44348
rhand 0.775784 -32.1988
rfingers 7.12502
rthumb 26.3332 -60.3906
lclavicle -3.18055e-015 3.97569e-015
lhumerus -29.4769 1.63919 89.3316
lradius 54.9994
lwrist 12.5359
lhand -22.3396 -12.6847
lfingers 7.12502
lthumb 4.08084 17.2559
rfemur -49.6219 31.5602 -6.17473
rtibia -0.985597
rfoot -20.0852 -39.5875
rtoes 24.9972
lfemur -44.1851 -38.1884 30.5255
ltibia -8.25276
lfoot -63.5524 47.6733
ltoes 51.0506
397
root 0.235718 17.4362 8.2736 45.3491 0.276541 -9.57805
lowerback 27.8375 -1.37923 7.51428
upperback 3.3081 0.70742 2.08221
thorax -11.6831 0.0129227 -2.21192
lowerneck 3.09062 -2.56461 -2.00761
upperneck -14.3067 -2.64653 8.14138
head -4.63301 -1.7212 2.98041
rclavicle 1.35174e-014 -7.15625e-015
rhumerus -32.5007 -1.25669 -87.4706
rradius 49.1351
rwrist 8.39037
rhand 0.866912 -32.3939
rfingers 7.12502
rthumb 26.4205 -60.5727
lclavicle 1.35174e-014 -7.15625e-015
lhumerus -29.0985 1.33125 89.406
lradius 54.97
lwrist 12.6481
lhand -22.3609 -12.7128
lfingers 7.12502
lthumb 4.06025 17.2282
rfemur -49.7041 31.5821 -5.52572
rtibia -0.95341
rfoot -19.9767 -39.3708
rtoes 25.22
lfemur -44.1658 -37.982 31.2559
ltibia -8.38358
lfoot -63.8021 47.4855
ltoes 51.2059
398
root 0.218099 17.4306 8.2751 45.7114 0.0399025 -9.63225
lowerback 28.0119 -1.25016 7.80936
upperback 3.44725 0.960841 2.06267
thorax -11.5815 0.117711 -2.49742
lowerneck 3.30352 -2.50158 -2.13483
upperneck -15.269 -2.52611 8.10443
head -4.96884 -1.67629 3.00945
rclavicle -1.11319e-014 -1.41137e-014
rhumerus -32.364 -1.88421 -87.0799
rradius 49.3079
rwrist 8.37131
rhand 0.896702 -32.3027
rfingers 7.12502
rthumb 26.449 -60.4772
lclavicle -1.11319e-014 -1.41137e-014
lhumerus -28.6585 0.955837 89.6793
lradius 54.9412
lwrist 12.6254
lhand -22.4448 -12.9207
lfingers 7.12502
lthumb 3.97929 17.0219
rfemur -50.1992 31.4624 -5.70531
rtibia -0.949134
rfoot -19.7501 -39.1968
rtoes 25.2122
lfemur -44.2404 -37.63 31.3915
ltibia -8.45673
lfoot -64.1186 47.233
ltoes 51.4124
399
root 0.198668 17.4296 8.2828 46.3829 -0.622415 -9.16963
lowerback 27.9171 -1.02771 7.34175
upperback 3.41505 1.0676 1.83426
thorax -11.5635 0.181107 -2.52983
lowerneck 3.16719 -2.56726 -1.87025
upperneck -15.9002 -2.5786 8.00633
head -5.14353 -1.72307 2.94906
rclavicle 3.57812e-015 -1.19271e-015
rhumerus -32.4148 -2.51693 -86.8526
rradius 49.3976
rwrist 8.45336
rhand 0.861321 -32.1727
rfingers 7.12502
rthumb 26.4151 -60.3523
lclavicle 3.57812e-015 -1.19271e-015
lhumerus -28.4849 0.574615 89.747
lradius 54.9954
lwrist 12.5928
lhand -22.415 -13.0818
lfingers 7.12502
lthumb 4.00806 16.8603
rfemur -51.0328 30.9935 -6.8064
rtibia -0.980949
rfoot -19.2184 -39.0962
rtoes 24.7434
lfemur -44.7434 -37.2127 30.951
ltibia -8.33327
lfoot -64.4743 46.9491
ltoes 51.6376
400
root 0.188325 17.4206 8.28401 46.6748 -0.442098 -9.39125
lowerback 28.1392 -1.12523 8.00364
upperback 3.36949 1.15489 1.76585
thorax -11.7066 0.180722 -3.02038
lowerneck 3.77338 -2.54506 -1.47995
upperneck -17.0066 -2.44732 8.04292
head -5.60478 -1.71935 2.9262
rclavicle -2.78299e-015 -7.55382e-015
rhumerus -32.614 -3.0975 -86.8696
rradius 49.3541
rwrist 8.53982
rhand 0.799119 -32.1218
rfingers 7.12502
rthumb 26.3556 -60.3103
lclavicle -2.78299e-015 -7.55382e-015
lhumerus -28.4792 0.127976 89.5575
lradius 54.9694
lwrist 12.6699
lhand -22.36 -13.0766
lfingers 7.12502
lthumb 4.06116 16.8644
rfemur -51.2766 30.8475 -6.40356
rtibia -1.02254
rfoot -18.663 -39.0497
rtoes 24.2371
lfemur -44.962 -36.9438 31.6245
ltibia -8.39095
lfoot -64.8393 46.6132
ltoes 51.8526
401
root 0.177781 17.4116 8.28689 46.9047 -0.215737 -9.7009
lowerback 28.4085 -1.22105 8.73899
upperback 3.35115 1.27533 1.7174
thorax -11.8345 0.19179 -3.54365
lowerneck 3.29186 -2.83057 -0.799235
upperneck -17.2353 -2.8107 7.84275
head -5.59225 -1.9277 2.76551
rclavicle -2.54444e-014 -2.16675e-014
rhumerus -32.8056 -3.74202 -86.88
rradius 49.2986
rwrist 8.69454
rhand 0.750026 -32.1353
rfingers 7.12502
rthumb 26.3086 -60.3308
lclavicle -2.54444e-014 -2.16675e-014
lhumerus -28.424 -0.305382 89.3883
lradius 54.9307
lwrist 12.7298
lhand -22.3207 -13.0476
lfingers 7.12502
lthumb 4.09907 16.8927
rfemur -51.4648 30.7957 -5.85654
rtibia -1.02516
rfoot -18.2201 -39.0004
rtoes 23.932
lfemur -45.0299 -36.7206 32.3226
ltibia -8.51901
lfoot -65.2251 46.2796
ltoes 52.0492
